<svg width="324.89375px" height="306.8px" xmlns="http://www.w3.org/2000/svg" viewBox="87.553125 -78.4 324.89375 306.8" style="background: rgba(13, 66, 33, 0);" preserveAspectRatio="xMidYMid"><defs><linearGradient id="editing-outline-gradient" x1="-0.5" x2="1.5" y1="0.5000000000000002" y2="0.4999999999999998"><stop offset="0" stop-color="#ff4646"></stop><stop offset="1" stop-color="#2d5fff"></stop></linearGradient><filter id="editing-outline" x="-100%" y="-100%" width="300%" height="300%"><feMorphology in="SourceGraphic" operator="dilate" radius="2" result="outline"></feMorphology><feComposite operator="out" in="outline" in2="SourceAlpha"></feComposite></filter></defs><g filter="url(#editing-outline)"><g transform="translate(139.66381072998047, 101.13500022888184)"><path d="M39.38-11.44L14.12-11.44L9.07 0L0 0L22.27-50.41L31.34-50.41L53.51 0L44.43 0L39.38-11.44ZM17.63-19.38L35.98-19.38L26.80-40.10L17.63-19.38ZM60.52-50.41L95.98-50.41L95.98-42.47L69.07-42.47L69.07-29.07L93.20-29.07L93.20-21.55L69.07-21.55L69.07-8.04L96.80-8.04L96.80 0L60.52 0L60.52-50.41ZM142.68-10.72L142.68-24.54L151.13-24.54L151.13-7.32L151.13-7.32Q144.02 0.62 130.72 0.62L130.72 0.62L130.72 0.62Q119.48 0.62 111.96-6.80L111.96-6.80L111.96-6.80Q104.43-14.23 104.43-25.36L104.43-25.36L104.43-25.36Q104.43-36.49 112.11-44.07L112.11-44.07L112.11-44.07Q119.79-51.65 130.72-51.65L130.72-51.65L130.72-51.65Q141.65-51.65 148.87-45.36L148.87-45.36L144.33-38.87L144.33-38.87Q139.07-43.30 131.44-43.30L131.44-43.30L131.44-43.30Q123.71-43.30 118.51-38.30L118.51-38.30L118.51-38.30Q113.30-33.30 113.30-25.36L113.30-25.36L113.30-25.36Q113.30-17.42 118.30-12.53L118.30-12.53L118.30-12.53Q123.30-7.63 130.72-7.63L130.72-7.63L130.72-7.63Q137.94-7.63 142.68-10.72L142.68-10.72ZM162.37 0L162.37-50.41L170.93-50.41L170.93 0L162.37 0ZM191.65-37.73L191.65-37.73L191.65-37.73Q191.65-34.54 194.02-33.09L194.02-33.09L194.02-33.09Q196.39-31.34 204.12-29.48L204.12-29.48L204.12-29.48Q212.27-27.53 216.03-24.12L216.03-24.12L216.03-24.12Q219.79-20.72 219.79-14.33L219.79-14.33L219.79-14.33Q219.79-7.63 214.79-3.51L214.79-3.51L214.79-3.51Q209.79 0.62 201.75 0.62L201.75 0.62L201.75 0.62Q190.10 0.62 180.72-7.63L180.72-7.63L186.08-14.02L186.08-14.02Q193.92-7.32 201.96-7.32L201.96-7.32L201.96-7.32Q205.98-7.32 208.45-9.12L208.45-9.12L208.45-9.12Q210.93-10.93 210.93-13.81L210.93-13.81L210.93-13.81Q210.93-16.70 208.71-18.35L208.71-18.35L208.71-18.35Q206.49-20 200.82-21.34L200.82-21.34L200.82-21.34Q191.03-23.61 187.22-26.70L187.22-26.70L187.22-26.70Q182.78-30.10 182.78-37.11L182.78-37.11L182.78-37.11Q182.78-43.92 187.73-47.78L187.73-47.78L187.73-47.78Q192.68-51.65 200.41-51.65L200.41-51.65L200.41-51.65Q210.82-51.65 218.25-45.57L218.25-45.57L213.71-39.18L213.71-39.18Q211.44-41.24 207.63-42.53L207.63-42.53L207.63-42.53Q203.81-43.81 200.10-43.81L200.10-43.81L200.10-43.81Q196.29-43.81 193.97-42.22L193.97-42.22L193.97-42.22Q191.65-40.62 191.65-37.73Z" fill="url(#editing-outline-gradient)"></path></g></g><style>text {
  font-size: 64px;
  font-family: Arial Black;
  dominant-baseline: central;
  text-anchor: middle;
}</style></svg>